<?xml version="1.0" encoding="utf-8"?>
<!-- Generator: Adobe Illustrator 28.1.0, SVG Export Plug-In . SVG Version: 6.00 Build 0)  -->
<svg version="1.1" id="Layer_1" xmlns="http://www.w3.org/2000/svg" xmlns:xlink="http://www.w3.org/1999/xlink" x="0px" y="0px"
	 viewBox="0 0 827 1708" style="enable-background:new 0 0 827 1708;" xml:space="preserve">
<style type="text/css">
	.st0{clip-path:url(#SVGID_00000158005035444059193310000010611109360444278914_);}
	.st1{fill:#FEFDF4;}
	.st2{fill:none;stroke:#FCF4C8;stroke-miterlimit:10;}
	.st3{fill:none;}
	.st4{fill:none;stroke:#424242;stroke-width:2;stroke-linecap:round;stroke-linejoin:round;stroke-miterlimit:10;}
	.st5{fill:none;stroke:#000000;stroke-width:1.5;stroke-linecap:round;stroke-linejoin:round;stroke-miterlimit:10;}
	.st6{enable-background:new    ;}
	.st7{font-family:'ArialMT';}
	.st8{font-size:12px;}
	.st9{fill:#FBFBFB;}
	.st10{fill:none;stroke:#000000;stroke-miterlimit:10;stroke-opacity:0.2;}
	.st11{fill:#F9F9F9;}
	.st12{fill:#F7F7F7;}
	.st13{fill:none;stroke:#CCD8FB;stroke-width:2;stroke-miterlimit:10;}
	.st14{fill:#CCD8FB;}
	.st15{fill:#F9E891;}
	.st16{fill:none;stroke:#000000;stroke-miterlimit:10;stroke-opacity:0.43;}
	
		.st17{fill:none;stroke:#000000;stroke-width:1.5;stroke-linecap:round;stroke-linejoin:round;stroke-miterlimit:10;stroke-opacity:0.8;}
	.st18{fill:#FF4646;}
	.st19{fill:#5CD6F1;}
	.st20{fill:#5687E0;}
	.st21{fill:#FFFFFF;}
	.st22{fill:none;stroke:#021443;stroke-width:1.5;stroke-linecap:round;stroke-linejoin:round;stroke-miterlimit:10;}
	.st23{fill:#021443;}
</style>
<g>
	<defs>
		<rect id="SVGID_1_" width="827" height="1708"/>
	</defs>
	<clipPath id="SVGID_00000106148389473347641660000018131799874631102356_">
		<use xlink:href="#SVGID_1_"  style="overflow:visible;"/>
	</clipPath>
	<g transform="matrix(1, 0, 0, 1, 0, 0)" style="clip-path:url(#SVGID_00000106148389473347641660000018131799874631102356_);">
		<g transform="matrix(1, 0, 0, 1, -118.70171550535154, 506.9712555985323)">
			<g transform="matrix(1, 0, 0, 1, 120.7484771154901, -382.6188924196612)">
				<path class="st1" d="M5.5,0.5h811.4c2.2,0,5,2.8,5,5v723.7c0,2.2-2.8,5-5,5H5.5c-2.2,0-5-2.8-5-5V5.5C0.5,3.3,3.3,0.5,5.5,0.5z"
					/>
				<path class="st2" d="M5.5,0.5h811.4c2.2,0,5,2.8,5,5v723.7c0,2.2-2.8,5-5,5H5.5c-2.2,0-5-2.8-5-5V5.5C0.5,3.3,3.3,0.5,5.5,0.5z"
					/>
				<g transform="matrix(1, 0, 0, 1, 11.261423749153911, 11.261423749153911)">
					<g transform="matrix(1, 0, 0, 1, 3, 3)">
						<path d="M5.5,3.5h17c0.9,0,2,1.1,2,2v17c0,0.9-1.1,2-2,2h-17c-0.9,0-2-1.1-2-2v-17C3.5,4.6,4.6,3.5,5.5,3.5z"/>
						<path class="st3" d="M5.5,3.5h17c0.9,0,2,1.1,2,2v17c0,0.9-1.1,2-2,2h-17c-0.9,0-2-1.1-2-2v-17C3.5,4.6,4.6,3.5,5.5,3.5z"/>
						<path class="st4" d="M10,12l4,4l4-4"/>
					</g>
					<g transform="matrix(1, 0, 0, 1, 34, 5)">
						<path class="st5" d="M20.9,10.8V8.9c0-0.9-0.8-1.6-1.7-1.6h-5.6c-0.3,0-0.6-0.1-0.7-0.3l-1.2-1.7C11.5,5.1,11.2,5,10.9,5H7.1
							c-1,0-1.7,0.7-1.7,1.6v9.9c0,0.7,0.6,1.3,1.4,1.3l0,0c0.7,0,1.3-0.5,1.4-1.1L8.6,12c0.1-0.8,0.8-1.4,1.7-1.4H20
							c0.5,0,1,0.2,1.3,0.5c0.3,0.3,0.5,0.8,0.4,1.2l-0.5,4c-0.1,0.8-0.8,1.4-1.7,1.4H6.7"/>
					</g>
					<g class="st6">
						<text transform="matrix(1 0 0 1 64 21.6279)" class="st7 st8">modules/</text>
					</g>
				</g>
			</g>
			<g transform="matrix(1, 0, 0, 1, 119.70171550535154, 392.07387425741706)">
				<path class="st1" d="M5.5,0.5h813.2c2.2,0,5,2.8,5,5v718.9c0,2.2-2.8,5-5,5H5.5c-2.2,0-5-2.8-5-5V5.5C0.5,3.3,3.3,0.5,5.5,0.5z"
					/>
				<path class="st2" d="M5.5,0.5h813.2c2.2,0,5,2.8,5,5v718.9c0,2.2-2.8,5-5,5H5.5c-2.2,0-5-2.8-5-5V5.5C0.5,3.3,3.3,0.5,5.5,0.5z"
					/>
				<g transform="matrix(1, 0, 0, 1, 11.261423749153911, 11.261423749153911)">
					<g transform="matrix(1, 0, 0, 1, 3, 3)">
						<path d="M5.5,3.5h17c0.9,0,2,1.1,2,2v17c0,0.9-1.1,2-2,2h-17c-0.9,0-2-1.1-2-2v-17C3.5,4.6,4.6,3.5,5.5,3.5z"/>
						<path class="st3" d="M5.5,3.5h17c0.9,0,2,1.1,2,2v17c0,0.9-1.1,2-2,2h-17c-0.9,0-2-1.1-2-2v-17C3.5,4.6,4.6,3.5,5.5,3.5z"/>
						<path class="st4" d="M10,12l4,4l4-4"/>
					</g>
					<g transform="matrix(1, 0, 0, 1, 34, 5)">
						<path class="st5" d="M20.9,10.8V9c0-0.9-0.8-1.6-1.7-1.6h-5.6c-0.3,0-0.6-0.1-0.7-0.3l-1.2-1.7C11.5,5.1,11.2,5,10.9,5H7.1
							c-1,0-1.7,0.7-1.7,1.6v9.9c0,0.7,0.6,1.3,1.4,1.3l0,0c0.7,0,1.3-0.5,1.4-1.1L8.6,12c0.1-0.8,0.8-1.4,1.7-1.4H20
							c0.5,0,1,0.2,1.3,0.5c0.3,0.3,0.5,0.8,0.4,1.2l-0.5,4c-0.1,0.8-0.8,1.4-1.7,1.4H6.7"/>
					</g>
					<g class="st6">
						<text transform="matrix(1 0 0 1 64 21.628)" class="st7 st8">public/</text>
					</g>
				</g>
			</g>
			<g transform="matrix(1, 0, 0, 1, 140.96313925450545, 849.7416486401671)">
				<path class="st1" d="M5.5,0.5h274.1c2.2,0,5,2.8,5,5v240c0,2.2-2.8,5-5,5H5.5c-2.2,0-5-2.8-5-5V5.5C0.5,3.3,3.3,0.5,5.5,0.5z"/>
				<path class="st2" d="M5.5,0.5h274.1c2.2,0,5,2.8,5,5v240c0,2.2-2.8,5-5,5H5.5c-2.2,0-5-2.8-5-5V5.5C0.5,3.3,3.3,0.5,5.5,0.5z"/>
				<g transform="matrix(1, 0, 0, 1, 11.261423749153996, 11.261423749153954)">
					<g transform="matrix(1, 0, 0, 1, 3, 3)">
						<path d="M5.5,3.5h17c0.9,0,2,1.1,2,2v17c0,0.9-1.1,2-2,2h-17c-0.9,0-2-1.1-2-2v-17C3.5,4.6,4.6,3.5,5.5,3.5z"/>
						<path class="st3" d="M5.5,3.5h17c0.9,0,2,1.1,2,2v17c0,0.9-1.1,2-2,2h-17c-0.9,0-2-1.1-2-2v-17C3.5,4.6,4.6,3.5,5.5,3.5z"/>
						<path class="st4" d="M10,12l4,4l4-4"/>
					</g>
					<g transform="matrix(1, 0, 0, 1, 34, 5)">
						<path class="st5" d="M20.9,10.8V9c0-0.9-0.8-1.6-1.7-1.6h-5.6c-0.3,0-0.6-0.1-0.7-0.3l-1.2-1.7C11.5,5.1,11.2,5,10.9,5H7.1
							c-1,0-1.7,0.7-1.7,1.6v9.9c0,0.7,0.6,1.3,1.4,1.3l0,0c0.7,0,1.3-0.5,1.4-1.1L8.6,12c0.1-0.8,0.8-1.4,1.7-1.4H20
							c0.5,0,1,0.2,1.3,0.5c0.3,0.3,0.5,0.8,0.4,1.2l-0.5,4c-0.1,0.8-0.8,1.4-1.7,1.4H6.7"/>
					</g>
					<g class="st6">
						<text transform="matrix(1 0 0 1 64 21.628)" class="st7 st8">decoder/</text>
					</g>
				</g>
			</g>
			<g transform="matrix(1, 0, 0, 1, 152.67090945323892, 447.33529800657095)">
				<path class="st9" d="M5.5,0.5h759c2.2,0,5,2.8,5,5v378.1c0,2.2-2.8,5-5,5H5.5c-2.2,0-5-2.8-5-5V5.5C0.5,3.3,3.3,0.5,5.5,0.5z"/>
				<path class="st10" d="M5.5,0.5h759c2.2,0,5,2.8,5,5v378.1c0,2.2-2.8,5-5,5H5.5c-2.2,0-5-2.8-5-5V5.5C0.5,3.3,3.3,0.5,5.5,0.5z"
					/>
				<g transform="matrix(1, 0, 0, 1, 11.261423749153911, 11.261423749153996)">
					<g transform="matrix(1, 0, 0, 1, 3, 3)">
						<path d="M5.5,3.5h17c0.9,0,2,1.1,2,2v17c0,0.9-1.1,2-2,2h-17c-0.9,0-2-1.1-2-2v-17C3.5,4.6,4.6,3.5,5.5,3.5z"/>
						<path class="st3" d="M5.5,3.5h17c0.9,0,2,1.1,2,2v17c0,0.9-1.1,2-2,2h-17c-0.9,0-2-1.1-2-2v-17C3.5,4.6,4.6,3.5,5.5,3.5z"/>
						<path class="st4" d="M10,12l4,4l4-4"/>
					</g>
					<g transform="matrix(1, 0, 0, 1, 34, 5)">
						<path class="st5" d="M20.9,10.8V8.9c0-0.9-0.8-1.6-1.7-1.6h-5.6c-0.3,0-0.6-0.1-0.7-0.3l-1.2-1.7C11.5,5.1,11.2,5,10.9,5H7.1
							c-1,0-1.7,0.7-1.7,1.6v9.9c0,0.7,0.6,1.3,1.4,1.3l0,0c0.7,0,1.3-0.5,1.4-1.1L8.6,12c0.1-0.8,0.8-1.4,1.7-1.4H20
							c0.5,0,1,0.2,1.3,0.5c0.3,0.3,0.5,0.8,0.4,1.2l-0.5,4c-0.1,0.8-0.8,1.4-1.7,1.4H6.7"/>
					</g>
					<g class="st6">
						<text transform="matrix(1 0 0 1 64 21.628)" class="st7 st8">resources/</text>
					</g>
				</g>
			</g>
			<g transform="matrix(1, 0, 0, 1, 173.93233320239284, 509.6227619673547)">
				<path class="st11" d="M5.5,0.5h159.8c2.2,0,5,2.8,5,5v112c0,2.2-2.8,5-5,5H5.5c-2.2,0-5-2.8-5-5V5.5C0.5,3.3,3.3,0.5,5.5,0.5z"
					/>
				<path class="st10" d="M5.5,0.5h159.8c2.2,0,5,2.8,5,5v112c0,2.2-2.8,5-5,5H5.5c-2.2,0-5-2.8-5-5V5.5C0.5,3.3,3.3,0.5,5.5,0.5z"
					/>
				<g transform="matrix(1, 0, 0, 1, 11.261423749153954, 11.261423749153975)">
					<g transform="matrix(1, 0, 0, 1, 3, 3)">
						<path d="M5.5,3.5h17c0.9,0,2,1.1,2,2v17c0,0.9-1.1,2-2,2h-17c-0.9,0-2-1.1-2-2v-17C3.5,4.6,4.6,3.5,5.5,3.5z"/>
						<path class="st3" d="M5.5,3.5h17c0.9,0,2,1.1,2,2v17c0,0.9-1.1,2-2,2h-17c-0.9,0-2-1.1-2-2v-17C3.5,4.6,4.6,3.5,5.5,3.5z"/>
						<path class="st4" d="M10,12l4,4l4-4"/>
					</g>
					<g transform="matrix(1, 0, 0, 1, 34, 5)">
						<path class="st5" d="M20.9,10.8V9c0-0.9-0.8-1.6-1.7-1.6h-5.6c-0.3,0-0.6-0.1-0.7-0.3l-1.2-1.7C11.5,5.1,11.2,5,10.9,5H7.1
							c-1,0-1.7,0.7-1.7,1.6v9.9c0,0.7,0.6,1.3,1.4,1.3l0,0c0.7,0,1.3-0.5,1.4-1.1L8.6,12c0.1-0.8,0.8-1.4,1.7-1.4H20
							c0.5,0,1,0.2,1.3,0.5c0.3,0.3,0.5,0.8,0.4,1.2l-0.5,4c-0.1,0.8-0.8,1.4-1.7,1.4H6.7"/>
					</g>
					<g class="st6">
						<text transform="matrix(1 0 0 1 64 21.628)" class="st7 st8">models/</text>
					</g>
				</g>
			</g>
			<g transform="matrix(1, 0, 0, 1, 176.85680702975702, 647.185515476593)">
				<path class="st11" d="M5.5,0.5h199.2c2.2,0,5,2.8,5,5v112c0,2.2-2.8,5-5,5H5.5c-2.2,0-5-2.8-5-5V5.5C0.5,3.3,3.3,0.5,5.5,0.5z"
					/>
				<path class="st10" d="M5.5,0.5h199.2c2.2,0,5,2.8,5,5v112c0,2.2-2.8,5-5,5H5.5c-2.2,0-5-2.8-5-5V5.5C0.5,3.3,3.3,0.5,5.5,0.5z"
					/>
				<g transform="matrix(1, 0, 0, 1, 11.261423749153954, 11.261423749153975)">
					<g transform="matrix(1, 0, 0, 1, 3, 3)">
						<path d="M5.5,3.5h17c0.9,0,2,1.1,2,2v17c0,0.9-1.1,2-2,2h-17c-0.9,0-2-1.1-2-2v-17C3.5,4.6,4.6,3.5,5.5,3.5z"/>
						<path class="st3" d="M5.5,3.5h17c0.9,0,2,1.1,2,2v17c0,0.9-1.1,2-2,2h-17c-0.9,0-2-1.1-2-2v-17C3.5,4.6,4.6,3.5,5.5,3.5z"/>
						<path class="st4" d="M10,12l4,4l4-4"/>
					</g>
					<g transform="matrix(1, 0, 0, 1, 34, 5)">
						<path class="st5" d="M20.9,10.8V8.9c0-0.9-0.8-1.6-1.7-1.6h-5.6c-0.3,0-0.6-0.1-0.7-0.3l-1.2-1.7C11.5,5.1,11.2,5,10.9,5H7.1
							c-1,0-1.7,0.7-1.7,1.6v9.9c0,0.7,0.6,1.3,1.4,1.3l0,0c0.7,0,1.3-0.5,1.4-1.1L8.6,12c0.1-0.8,0.8-1.4,1.7-1.4H20
							c0.5,0,1,0.2,1.3,0.5c0.3,0.3,0.5,0.8,0.4,1.2l-0.5,4c-0.1,0.8-0.8,1.4-1.7,1.4H6.7"/>
					</g>
					<g class="st6">
						<text transform="matrix(1 0 0 1 64 21.628)" class="st7 st8">animations/</text>
					</g>
				</g>
			</g>
			<g transform="matrix(1, 0, 0, 1, 515.930837660392, 502.59672175572496)">
				<path class="st11" d="M5.5,0.5H380c2.2,0,5,2.8,5,5v301.6c0,2.2-2.8,5-5,5H5.5c-2.2,0-5-2.8-5-5V5.5C0.5,3.3,3.3,0.5,5.5,0.5z"
					/>
				<path class="st10" d="M5.5,0.5H380c2.2,0,5,2.8,5,5v301.6c0,2.2-2.8,5-5,5H5.5c-2.2,0-5-2.8-5-5V5.5C0.5,3.3,3.3,0.5,5.5,0.5z"
					/>
				<g transform="matrix(1, 0, 0, 1, 11.261423749153996, 11.261423749153996)">
					<g transform="matrix(1, 0, 0, 1, 3, 3)">
						<path d="M5.5,3.5h17c0.9,0,2,1.1,2,2v17c0,0.9-1.1,2-2,2h-17c-0.9,0-2-1.1-2-2v-17C3.5,4.6,4.6,3.5,5.5,3.5z"/>
						<path class="st3" d="M5.5,3.5h17c0.9,0,2,1.1,2,2v17c0,0.9-1.1,2-2,2h-17c-0.9,0-2-1.1-2-2v-17C3.5,4.6,4.6,3.5,5.5,3.5z"/>
						<path class="st4" d="M10,12l4,4l4-4"/>
					</g>
					<g transform="matrix(1, 0, 0, 1, 34, 5)">
						<path class="st5" d="M20.9,10.8V9c0-0.9-0.8-1.6-1.7-1.6h-5.6c-0.3,0-0.6-0.1-0.7-0.3l-1.2-1.7C11.5,5.1,11.2,5,10.9,5H7.1
							c-1,0-1.7,0.7-1.7,1.6v9.9c0,0.7,0.6,1.3,1.4,1.3l0,0c0.7,0,1.3-0.5,1.4-1.1L8.6,12c0.1-0.8,0.8-1.4,1.7-1.4H20
							c0.5,0,1,0.2,1.3,0.5c0.3,0.3,0.5,0.8,0.4,1.2l-0.5,4c-0.1,0.8-0.8,1.4-1.7,1.4H6.7"/>
					</g>
					<g class="st6">
						<text transform="matrix(1 0 0 1 64 21.628)" class="st7 st8">textures/</text>
					</g>
				</g>
			</g>
			<g transform="matrix(1, 0, 0, 1, 537.192261409546, 557.858145504879)">
				<path class="st12" d="M5.5,0.5h332c2.2,0,5,2.8,5,5v225.1c0,2.2-2.8,5-5,5H5.5c-2.2,0-5-2.8-5-5V5.5C0.5,3.3,3.3,0.5,5.5,0.5z"
					/>
				<path class="st10" d="M5.5,0.5h332c2.2,0,5,2.8,5,5v225.1c0,2.2-2.8,5-5,5H5.5c-2.2,0-5-2.8-5-5V5.5C0.5,3.3,3.3,0.5,5.5,0.5z"
					/>
				<g transform="matrix(1, 0, 0, 1, 11.261423749153996, 11.261423749153954)">
					<g transform="matrix(1, 0, 0, 1, 3, 3)">
						<path d="M5.5,3.5h17c0.9,0,2,1.1,2,2v17c0,0.9-1.1,2-2,2h-17c-0.9,0-2-1.1-2-2v-17C3.5,4.6,4.6,3.5,5.5,3.5z"/>
						<path class="st3" d="M5.5,3.5h17c0.9,0,2,1.1,2,2v17c0,0.9-1.1,2-2,2h-17c-0.9,0-2-1.1-2-2v-17C3.5,4.6,4.6,3.5,5.5,3.5z"/>
						<path class="st4" d="M10,12l4,4l4-4"/>
					</g>
					<g transform="matrix(1, 0, 0, 1, 34, 5)">
						<path class="st5" d="M20.9,10.8V9c0-0.9-0.8-1.6-1.7-1.6h-5.6c-0.3,0-0.6-0.1-0.7-0.3l-1.2-1.7C11.5,5.1,11.2,5,10.9,5H7.1
							c-1,0-1.7,0.7-1.7,1.6v9.9c0,0.7,0.6,1.3,1.4,1.3l0,0c0.7,0,1.3-0.5,1.4-1.1L8.6,12c0.1-0.8,0.8-1.4,1.7-1.4H20
							c0.5,0,1,0.2,1.3,0.5c0.3,0.3,0.5,0.8,0.4,1.2l-0.5,4c-0.1,0.8-0.8,1.4-1.7,1.4H6.7"/>
					</g>
					<g class="st6">
						<text transform="matrix(1 0 0 1 64 21.628)" class="st7 st8">env/</text>
					</g>
				</g>
			</g>
			<g transform="matrix(1, 0, 0, 1, 556.8449892968454, -296.4696495374833)">
				<path class="st13" d="M1,1c54.9,8.2,105.5,43.2,148,119.1"/>
				<path class="st14" d="M149.6,111.8l-1.1,7.5l-7-3L149.6,111.8z"/>
				<path class="st13" d="M149.6,111.8l-1.1,7.5l-7-3L149.6,111.8z"/>
			</g>
			<g transform="matrix(1, 0, 0, 1, 407.73647248675036, -138.38228335369925)">
				<path class="st13" d="M1,1c45.6,19,88.8,70,108,153.2"/>
				<path class="st14" d="M111.9,146.4l-3.2,6.9l-5.9-4.8L111.9,146.4z"/>
				<path class="st13" d="M111.9,146.4l-3.2,6.9l-5.9-4.8L111.9,146.4z"/>
			</g>
			<g transform="matrix(1, 0, 0, 1, 464.69993771663894, -145.42684453825808)">
				<path class="st13" d="M1,1c70,9.9,180.1,58.5,294.1,152.8"/>
				<path class="st14" d="M292.6,145.7l1.7,7.4l-7.6-0.3L292.6,145.7z"/>
				<path class="st13" d="M292.6,145.7l1.7,7.4l-7.6-0.3L292.6,145.7z"/>
			</g>
			<g transform="matrix(1, 0, 0, 1, 305.46747527141315, -138.08288661102682)">
				<path class="st13" d="M52.4,1C65.3,68.3,45.6,116.8,3,146.8"/>
				<path class="st14" d="M11.4,146.5l-7.6-0.3l2.3-7.2L11.4,146.5z"/>
				<path class="st13" d="M11.4,146.5l-7.6-0.3l2.3-7.2L11.4,146.5z"/>
			</g>
			<g transform="matrix(1, 0, 0, 1, 449.7625053156207, -281.8483890281524)">
				<path class="st13" d="M45.1,1C28.8,69.1-4.5,101.6,9.3,98.6"/>
				<path class="st14" d="M1.5,95.6l6.8,3.2l-4.9,5.8L1.5,95.6z"/>
				<path class="st13" d="M1.5,95.6l6.8,3.2l-4.9,5.8L1.5,95.6z"/>
			</g>
			<g transform="matrix(1, 0, 0, 1, 611.2760083708522, 53.01174063858984)">
				<path class="st13" d="M1,1c1.1,0.2,33.3,29.3,51.3,95.3"/>
				<path class="st14" d="M54.9,88.4l-2.9,7l-6-4.6L54.9,88.4z"/>
				<path class="st13" d="M54.9,88.4l-2.9,7l-6-4.6L54.9,88.4z"/>
			</g>
			<g transform="matrix(1, 0, 0, 1, 467.02519769498065, 61.33850808054392)">
				<path class="st13" d="M47.5,1C25.6,67.5-8.3,95.8,8.9,93.4"/>
				<path class="st14" d="M1.3,89.8l6.6,3.8l-5.3,5.4L1.3,89.8z"/>
				<path class="st13" d="M1.3,89.8l6.6,3.8l-5.3,5.4L1.3,89.8z"/>
			</g>
			<g transform="matrix(1, 0, 0, 1, 575.5598999881886, 194.84100068204089)">
				<path class="st13" d="M88.1,1C70.2,67.4,37.8,96.9,1.7,103.2"/>
				<path class="st14" d="M9.3,106.5L2.7,103l5.1-5.6L9.3,106.5z"/>
				<path class="st13" d="M9.3,106.5L2.7,103l5.1-5.6L9.3,106.5z"/>
			</g>
			<g transform="matrix(1, 0, 0, 1, 539.739177079382, -460.248044434258)">
				<path class="st13" d="M57.8,1C64,68.4,40.6,112.4,2.7,133.2"/>
				<path class="st14" d="M11.1,133.8l-7.5-1.2l3-6.9L11.1,133.8z"/>
				<path class="st13" d="M11.1,133.8l-7.5-1.2l3-6.9L11.1,133.8z"/>
			</g>
			<g transform="matrix(1, 0, 0, 1, 606.9498002774538, -176.39749525583534)">
				<path class="st15" d="M5.5,0.5h212.7c2.2,0,5,2.8,5,5V41c0,2.2-2.8,5-5,5H5.5c-2.2,0-5-2.8-5-5V5.5C0.5,3.3,3.3,0.5,5.5,0.5z"/>
				<path class="st16" d="M5.5,0.5h212.7c2.2,0,5,2.8,5,5V41c0,2.2-2.8,5-5,5H5.5c-2.2,0-5-2.8-5-5V5.5C0.5,3.3,3.3,0.5,5.5,0.5z"/>
				<g transform="matrix(1, 0, 0, 1, 11.261423749153954, 11.261423749153968)">
					<g transform="matrix(1, 0, 0, 1, 0, 0)">
						<path class="st17" d="M8.4,19.8h8c1.3,0,2.4-1.2,2.4-2.6V8.9c0-0.7-0.3-1.3-0.7-1.8l-1.9-2c-0.5-0.5-1.1-0.8-1.7-0.8H8.4
							C7,4.3,6,5.5,6,6.9v10.3C6,18.6,7,19.8,8.4,19.8z M18.8,9H16c-0.9,0-1.6-0.8-1.6-1.7v-3"/>
					</g>
					<g class="st6">
						<text transform="matrix(1 0 0 1 26 16.628)" class="st7 st8">ThirdPersonCamera.js</text>
					</g>
				</g>
			</g>
			<g transform="matrix(1, 0, 0, 1, 653.4535443489017, 8.159627760506169)">
				<path class="st15" d="M5.5,0.5H263c2.2,0,5,2.8,5,5V41c0,2.2-2.8,5-5,5H5.5c-2.2,0-5-2.8-5-5V5.5C0.5,3.3,3.3,0.5,5.5,0.5z"/>
				<path class="st16" d="M5.5,0.5H263c2.2,0,5,2.8,5,5V41c0,2.2-2.8,5-5,5H5.5c-2.2,0-5-2.8-5-5V5.5C0.5,3.3,3.3,0.5,5.5,0.5z"/>
				<g transform="matrix(1, 0, 0, 1, 11.261423749153996, 11.261423749153968)">
					<g transform="matrix(1, 0, 0, 1, 0, 0)">
						<path class="st17" d="M8.4,19.8h8c1.3,0,2.4-1.2,2.4-2.6V8.9c0-0.7-0.3-1.3-0.7-1.8l-1.9-2c-0.5-0.5-1.1-0.8-1.7-0.8H8.4
							C7,4.3,6,5.5,6,6.9v10.3C6,18.6,7,19.8,8.4,19.8z M18.8,9H16c-0.9,0-1.6-0.8-1.6-1.7v-3"/>
					</g>
					<g class="st6">
						<text transform="matrix(1 0 0 1 25.9999 16.628)" class="st7 st8">CharacterControllerProxy.js</text>
					</g>
				</g>
			</g>
			<g transform="matrix(1, 0, 0, 1, 142.009900864644, 8.491745391907187)">
				<path class="st15" d="M5.5,0.5h256.3c2.2,0,5,2.8,5,5V41c0,2.2-2.8,5-5,5H5.5c-2.2,0-5-2.8-5-5V5.5C0.5,3.3,3.3,0.5,5.5,0.5z"/>
				<path class="st16" d="M5.5,0.5h256.3c2.2,0,5,2.8,5,5V41c0,2.2-2.8,5-5,5H5.5c-2.2,0-5-2.8-5-5V5.5C0.5,3.3,3.3,0.5,5.5,0.5z"/>
				<g transform="matrix(1, 0, 0, 1, 11.261423749153996, 11.261423749153968)">
					<g transform="matrix(1, 0, 0, 1, 0, 0)">
						<path class="st17" d="M8.4,19.8h8c1.3,0,2.4-1.2,2.4-2.6V8.9c0-0.7-0.3-1.3-0.7-1.8l-1.9-2c-0.5-0.5-1.1-0.8-1.7-0.8H8.4
							C7,4.3,6,5.5,6,6.9v10.3C6,18.6,7,19.8,8.4,19.8z M18.8,9h-2.8c-0.9,0-1.6-0.8-1.6-1.7v-3"/>
					</g>
					<g class="st6">
						<text transform="matrix(1 0 0 1 26 16.628)" class="st7 st8">CharacterControllerInput.js</text>
					</g>
				</g>
			</g>
			<g transform="matrix(1, 0, 0, 1, 241.21420365821427, -183.59687690747734)">
				<path class="st15" d="M5.5,0.5H219c2.2,0,5,2.8,5,5V41c0,2.2-2.8,5-5,5H5.5c-2.2,0-5-2.8-5-5V5.5C0.5,3.3,3.3,0.5,5.5,0.5z"/>
				<path class="st16" d="M5.5,0.5H219c2.2,0,5,2.8,5,5V41c0,2.2-2.8,5-5,5H5.5c-2.2,0-5-2.8-5-5V5.5C0.5,3.3,3.3,0.5,5.5,0.5z"/>
				<g transform="matrix(1, 0, 0, 1, 11.261423749153954, 11.261423749153968)">
					<g transform="matrix(1, 0, 0, 1, 0, 0)">
						<path class="st17" d="M8.4,19.8h8c1.3,0,2.4-1.2,2.4-2.6V8.9c0-0.7-0.3-1.3-0.7-1.8l-1.9-2c-0.5-0.5-1.1-0.8-1.7-0.8H8.4
							C7,4.3,6,5.5,6,6.9v10.3C6,18.6,7,19.8,8.4,19.8z M18.8,9h-2.8c-0.9,0-1.6-0.8-1.6-1.7v-3"/>
					</g>
					<g class="st6">
						<text transform="matrix(1 0 0 1 26 16.628)" class="st7 st8">CharacterController.js</text>
					</g>
				</g>
			</g>
			<g transform="matrix(1, 0, 0, 1, 431.9577523656494, 15.840627612041658)">
				<path class="st15" d="M5.5,0.5h169.3c2.2,0,5,2.8,5,5V41c0,2.2-2.8,5-5,5H5.5c-2.2,0-5-2.8-5-5V5.5C0.5,3.3,3.3,0.5,5.5,0.5z"/>
				<path class="st16" d="M5.5,0.5h169.3c2.2,0,5,2.8,5,5V41c0,2.2-2.8,5-5,5H5.5c-2.2,0-5-2.8-5-5V5.5C0.5,3.3,3.3,0.5,5.5,0.5z"/>
				<g transform="matrix(1, 0, 0, 1, 11.261423749153954, 11.261423749153968)">
					<g transform="matrix(1, 0, 0, 1, 0, 0)">
						<path class="st17" d="M8.4,19.8h8c1.3,0,2.4-1.2,2.4-2.6V8.9c0-0.7-0.3-1.3-0.7-1.8l-1.9-2c-0.5-0.5-1.1-0.8-1.7-0.8H8.4
							C7,4.3,6,5.5,6,6.9v10.3C6,18.6,7,19.8,8.4,19.8z M18.8,9h-2.8c-0.9,0-1.6-0.8-1.6-1.7v-3"/>
					</g>
					<g class="st6">
						<text transform="matrix(1 0 0 1 26 16.628)" class="st7 st8">CharacterFSM.js</text>
					</g>
				</g>
			</g>
			<g transform="matrix(1, 0, 0, 1, 254.53046733664098, 146.83713771900153)">
				<path class="st15" d="M5.5,0.5h210.4c2.2,0,5,2.8,5,5V41c0,2.2-2.8,5-5,5H5.5c-2.2,0-5-2.8-5-5V5.5C0.5,3.3,3.3,0.5,5.5,0.5z"/>
				<path class="st16" d="M5.5,0.5h210.4c2.2,0,5,2.8,5,5V41c0,2.2-2.8,5-5,5H5.5c-2.2,0-5-2.8-5-5V5.5C0.5,3.3,3.3,0.5,5.5,0.5z"/>
				<g transform="matrix(1, 0, 0, 1, 11.261423749153954, 11.261423749153968)">
					<g transform="matrix(1, 0, 0, 1, 0, 0)">
						<path class="st17" d="M8.4,19.8h8c1.3,0,2.4-1.2,2.4-2.6V8.9c0-0.7-0.3-1.3-0.7-1.8l-1.9-2c-0.5-0.5-1.1-0.8-1.7-0.8H8.4
							C7,4.3,6,5.5,6,6.9v10.3C6,18.6,7,19.8,8.4,19.8z M18.8,9h-2.8c-0.9,0-1.6-0.8-1.6-1.7v-3"/>
					</g>
					<g class="st6">
						<text transform="matrix(1 0 0 1 26 16.628)" class="st7 st8">FiniteStateMachine.js</text>
					</g>
				</g>
			</g>
			<g transform="matrix(1, 0, 0, 1, 610.2870288470478, 149.33527979928692)">
				<path class="st15" d="M5.5,0.5h108.2c2.2,0,5,2.8,5,5V41c0,2.2-2.8,5-5,5H5.5c-2.2,0-5-2.8-5-5V5.5C0.5,3.3,3.3,0.5,5.5,0.5z"/>
				<path class="st16" d="M5.5,0.5h108.2c2.2,0,5,2.8,5,5V41c0,2.2-2.8,5-5,5H5.5c-2.2,0-5-2.8-5-5V5.5C0.5,3.3,3.3,0.5,5.5,0.5z"/>
				<g transform="matrix(1, 0, 0, 1, 11.261423749153975, 11.261423749153968)">
					<g transform="matrix(1, 0, 0, 1, 0, 0)">
						<path class="st17" d="M8.4,19.8h8c1.3,0,2.4-1.2,2.4-2.6V8.9c0-0.7-0.3-1.3-0.7-1.8l-1.9-2c-0.5-0.5-1.1-0.8-1.7-0.8H8.4
							C7,4.3,6,5.5,6,6.9v10.3C6,18.6,7,19.8,8.4,19.8z M18.8,9H16c-0.9,0-1.6-0.8-1.6-1.7v-3"/>
					</g>
					<g class="st6">
						<text transform="matrix(1 0 0 1 25.9999 16.628)" class="st7 st8">States.js</text>
					</g>
				</g>
			</g>
			<g transform="matrix(1, 0, 0, 1, 466.564073720231, 284.2532502456959)">
				<path class="st15" d="M5.5,0.5h99.7c2.2,0,5,2.8,5,5V41c0,2.2-2.8,5-5,5H5.5c-2.2,0-5-2.8-5-5V5.5C0.5,3.3,3.3,0.5,5.5,0.5z"/>
				<path class="st16" d="M5.5,0.5h99.7c2.2,0,5,2.8,5,5V41c0,2.2-2.8,5-5,5H5.5c-2.2,0-5-2.8-5-5V5.5C0.5,3.3,3.3,0.5,5.5,0.5z"/>
				<g transform="matrix(1, 0, 0, 1, 11.261423749153975, 11.261423749153968)">
					<g transform="matrix(1, 0, 0, 1, 0, 0)">
						<path class="st17" d="M8.4,19.8h8c1.3,0,2.4-1.2,2.4-2.6V8.9c0-0.7-0.3-1.3-0.7-1.8l-1.9-2c-0.5-0.5-1.1-0.8-1.7-0.8H8.4
							C7,4.3,6,5.5,6,6.9v10.3C6,18.6,7,19.8,8.4,19.8z M18.8,9h-2.8c-0.9,0-1.6-0.8-1.6-1.7v-3"/>
					</g>
					<g class="st6">
						<text transform="matrix(1 0 0 1 26 16.628)" class="st7 st8">State.js</text>
					</g>
				</g>
			</g>
			<g transform="matrix(1, 0, 0, 1, 131.54265328603327, -505.9712555985323)">
				<path class="st18" d="M5.5,0.5H129c2.2,0,5,2.8,5,5V41c0,2.2-2.8,5-5,5H5.5c-2.2,0-5-2.8-5-5V5.5C0.5,3.3,3.3,0.5,5.5,0.5z"/>
				<path class="st16" d="M5.5,0.5H129c2.2,0,5,2.8,5,5V41c0,2.2-2.8,5-5,5H5.5c-2.2,0-5-2.8-5-5V5.5C0.5,3.3,3.3,0.5,5.5,0.5z"/>
				<g transform="matrix(1, 0, 0, 1, 11.261423749153954, 11.261423749153968)">
					<g transform="matrix(1, 0, 0, 1, 0, 0)">
						<path class="st17" d="M8.4,19.8h8c1.3,0,2.4-1.2,2.4-2.6V8.9c0-0.7-0.3-1.3-0.7-1.8l-1.9-2c-0.5-0.5-1.1-0.8-1.7-0.8H8.4
							C7,4.3,6,5.5,6,6.9v10.3C6,18.6,7,19.8,8.4,19.8z M18.8,9H16c-0.9,0-1.6-0.8-1.6-1.7v-3"/>
					</g>
					<g class="st6">
						<text transform="matrix(1 0 0 1 26 16.628)" class="st7 st8">index.html</text>
					</g>
				</g>
			</g>
			<g transform="matrix(1, 0, 0, 1, 333.37316021289973, -503.35464936391907)">
				<path class="st19" d="M5.5,0.5h108.2c2.2,0,5,2.8,5,5V41c0,2.2-2.8,5-5,5H5.5c-2.2,0-5-2.8-5-5V5.5C0.5,3.3,3.3,0.5,5.5,0.5z"/>
				<path class="st16" d="M5.5,0.5h108.2c2.2,0,5,2.8,5,5V41c0,2.2-2.8,5-5,5H5.5c-2.2,0-5-2.8-5-5V5.5C0.5,3.3,3.3,0.5,5.5,0.5z"/>
				<g transform="matrix(1, 0, 0, 1, 11.261423749153975, 11.261423749153968)">
					<g transform="matrix(1, 0, 0, 1, 0, 0)">
						<path class="st17" d="M8.4,19.8h8c1.3,0,2.4-1.2,2.4-2.6V8.9c0-0.7-0.3-1.3-0.7-1.8l-1.9-2c-0.5-0.5-1.1-0.8-1.7-0.8H8.4
							C7,4.3,6,5.5,6,6.9v10.3C6,18.6,7,19.8,8.4,19.8z M18.8,9h-2.8c-0.9,0-1.6-0.8-1.6-1.7v-3"/>
					</g>
					<g class="st6">
						<text transform="matrix(1 0 0 1 26 16.628)" class="st7 st8">style.css</text>
					</g>
				</g>
			</g>
			<g transform="matrix(1, 0, 0, 1, 442.9815127056993, -327.35746867050733)">
				<path class="st15" d="M5.5,0.5h103.9c2.2,0,5,2.8,5,5V41c0,2.2-2.8,5-5,5H5.5c-2.2,0-5-2.8-5-5V5.5C0.5,3.3,3.3,0.5,5.5,0.5z"/>
				<path class="st16" d="M5.5,0.5h103.9c2.2,0,5,2.8,5,5V41c0,2.2-2.8,5-5,5H5.5c-2.2,0-5-2.8-5-5V5.5C0.5,3.3,3.3,0.5,5.5,0.5z"/>
				<g transform="matrix(1, 0, 0, 1, 11.261423749153975, 11.261423749153968)">
					<g transform="matrix(1, 0, 0, 1, 0, 0)">
						<path class="st17" d="M8.4,19.8h8c1.3,0,2.4-1.2,2.4-2.6V8.9c0-0.7-0.3-1.3-0.7-1.8l-1.9-2c-0.5-0.5-1.1-0.8-1.7-0.8H8.4
							C7,4.3,6,5.5,6,6.9v10.3C6,18.6,7,19.8,8.4,19.8z M18.8,9H16c-0.9,0-1.6-0.8-1.6-1.7v-3"/>
					</g>
					<g class="st6">
						<text transform="matrix(1 0 0 1 26 16.628)" class="st7 st8">World.js</text>
					</g>
				</g>
			</g>
			<g transform="matrix(1, 0, 0, 1, 541.8564992475632, -505.76878658507593)">
				<path class="st15" d="M5.5,0.5h96.1c2.2,0,5,2.8,5,5V41c0,2.2-2.8,5-5,5H5.5c-2.2,0-5-2.8-5-5V5.5C0.5,3.3,3.3,0.5,5.5,0.5z"/>
				<path class="st16" d="M5.5,0.5h96.1c2.2,0,5,2.8,5,5V41c0,2.2-2.8,5-5,5H5.5c-2.2,0-5-2.8-5-5V5.5C0.5,3.3,3.3,0.5,5.5,0.5z"/>
				<g transform="matrix(1, 0, 0, 1, 11.261423749153975, 11.261423749153968)">
					<g transform="matrix(1, 0, 0, 1, 0, 0)">
						<path class="st17" d="M8.4,19.8h8c1.3,0,2.4-1.2,2.4-2.6V8.9c0-0.7-0.3-1.3-0.7-1.8l-1.9-2c-0.5-0.5-1.1-0.8-1.7-0.8H8.4
							C7,4.3,6,5.5,6,6.9v10.3C6,18.6,7,19.8,8.4,19.8z M18.8,9H16c-0.9,0-1.6-0.8-1.6-1.7v-3"/>
					</g>
					<g class="st6">
						<text transform="matrix(1 0 0 1 26 16.628)" class="st7 st8">main.js</text>
					</g>
				</g>
			</g>
			<g transform="matrix(1, 0, 0, 1, 765.6569419869797, -503.70013538220144)">
				<path class="st20" d="M5.5,0.5h136.9c2.2,0,5,2.8,5,5V41c0,2.2-2.8,5-5,5H5.5c-2.2,0-5-2.8-5-5V5.5C0.5,3.3,3.3,0.5,5.5,0.5z"/>
				<path class="st16" d="M5.5,0.5h136.9c2.2,0,5,2.8,5,5V41c0,2.2-2.8,5-5,5H5.5c-2.2,0-5-2.8-5-5V5.5C0.5,3.3,3.3,0.5,5.5,0.5z"/>
				<g transform="matrix(1, 0, 0, 1, 11.261423749153954, 11.261423749153968)">
					<g transform="matrix(1, 0, 0, 1, 0, 0)">
						<path class="st17" d="M8.4,19.8h8c1.3,0,2.4-1.2,2.4-2.6V8.9c0-0.7-0.3-1.3-0.7-1.8l-1.9-2c-0.5-0.5-1.1-0.8-1.7-0.8H8.4
							C7,4.3,6,5.5,6,6.9v10.3C6,18.6,7,19.8,8.4,19.8z M18.8,9H16c-0.9,0-1.6-0.8-1.6-1.7v-3"/>
					</g>
					<g class="st6">
						<text transform="matrix(1 0 0 1 25.9999 16.628)" class="st7 st8">README.md</text>
					</g>
				</g>
			</g>
			<g transform="matrix(1, 0, 0, 1, 162.22456300365945, 905.0030723893211)">
				<path class="st15" d="M5.5,0.5h173.1c2.2,0,5,2.8,5,5V41c0,2.2-2.8,5-5,5H5.5c-2.2,0-5-2.8-5-5V5.5C0.5,3.3,3.3,0.5,5.5,0.5z"/>
				<path class="st16" d="M5.5,0.5h173.1c2.2,0,5,2.8,5,5V41c0,2.2-2.8,5-5,5H5.5c-2.2,0-5-2.8-5-5V5.5C0.5,3.3,3.3,0.5,5.5,0.5z"/>
				<g transform="matrix(1, 0, 0, 1, 11.261423749153954, 11.261423749153968)">
					<g transform="matrix(1, 0, 0, 1, 0, 0)">
						<path class="st17" d="M8.4,19.8h8c1.3,0,2.4-1.2,2.4-2.6V8.9c0-0.7-0.3-1.3-0.7-1.8l-1.9-2c-0.5-0.5-1.1-0.8-1.7-0.8H8.4
							C7,4.3,6,5.5,6,6.9v10.3C6,18.6,7,19.8,8.4,19.8z M18.8,9h-2.8c-0.9,0-1.6-0.8-1.6-1.7v-3"/>
					</g>
					<g class="st6">
						<text transform="matrix(1 0 0 1 26 16.628)" class="st7 st8">draco_decoder.js</text>
					</g>
				</g>
			</g>
			<g transform="matrix(1, 0, 0, 1, 167.7858247449293, 1032.9262216071854)">
				<path class="st15" d="M5.5,0.5h205.4c2.2,0,5,2.8,5,5V41c0,2.2-2.8,5-5,5H5.5c-2.2,0-5-2.8-5-5V5.5C0.5,3.3,3.3,0.5,5.5,0.5z"/>
				<path class="st16" d="M5.5,0.5h205.4c2.2,0,5,2.8,5,5V41c0,2.2-2.8,5-5,5H5.5c-2.2,0-5-2.8-5-5V5.5C0.5,3.3,3.3,0.5,5.5,0.5z"/>
				<g transform="matrix(1, 0, 0, 1, 11.261423749153954, 11.261423749153968)">
					<g transform="matrix(1, 0, 0, 1, 0, 0)">
						<path class="st17" d="M8.4,19.8h8c1.3,0,2.4-1.2,2.4-2.6V8.9c0-0.7-0.3-1.3-0.7-1.8l-1.9-2c-0.5-0.5-1.1-0.8-1.7-0.8H8.4
							C7,4.3,6,5.5,6,6.9v10.3C6,18.6,7,19.8,8.4,19.8z M18.8,9h-2.8c-0.9,0-1.6-0.8-1.6-1.7v-3"/>
					</g>
					<g class="st6">
						<text transform="matrix(1 0 0 1 26 16.628)" class="st7 st8">draco_decoder.wasm</text>
					</g>
				</g>
			</g>
			<g transform="matrix(1, 0, 0, 1, 163.7858247449293, 968.4971241088772)">
				<path class="st15" d="M5.5,0.5h230c2.2,0,5,2.8,5,5V41c0,2.2-2.8,5-5,5H5.5c-2.2,0-5-2.8-5-5V5.5C0.5,3.3,3.3,0.5,5.5,0.5z"/>
				<path class="st16" d="M5.5,0.5h230c2.2,0,5,2.8,5,5V41c0,2.2-2.8,5-5,5H5.5c-2.2,0-5-2.8-5-5V5.5C0.5,3.3,3.3,0.5,5.5,0.5z"/>
				<g transform="matrix(1, 0, 0, 1, 11.261423749153954, 11.261423749153968)">
					<g transform="matrix(1, 0, 0, 1, 0, 0)">
						<path class="st17" d="M8.4,19.8h8c1.3,0,2.4-1.2,2.4-2.6V8.9c0-0.7-0.3-1.3-0.7-1.8l-1.9-2c-0.5-0.5-1.1-0.8-1.7-0.8H8.4
							C7,4.3,6,5.5,6,6.9v10.3C6,18.6,7,19.8,8.4,19.8z M18.8,9h-2.8c-0.9,0-1.6-0.8-1.6-1.7v-3"/>
					</g>
					<g class="st6">
						<text transform="matrix(1 0 0 1 26 16.628)" class="st7 st8">draco_wasm_wrapper.js</text>
					</g>
				</g>
			</g>
			<g transform="matrix(1, 0, 0, 1, 198.11823077891097, 702.446939225747)">
				<path class="st21" d="M5.5,0.5h156.6c2.2,0,5,2.8,5,5V41c0,2.2-2.8,5-5,5H5.5c-2.2,0-5-2.8-5-5V5.5C0.5,3.3,3.3,0.5,5.5,0.5z"/>
				<path class="st16" d="M5.5,0.5h156.6c2.2,0,5,2.8,5,5V41c0,2.2-2.8,5-5,5H5.5c-2.2,0-5-2.8-5-5V5.5C0.5,3.3,3.3,0.5,5.5,0.5z"/>
				<g transform="matrix(1, 0, 0, 1, 11.261423749153954, 11.261423749153968)">
					<g transform="matrix(1, 0, 0, 1, 0, 0)">
						<path class="st22" d="M8.4,19.8h8c1.3,0,2.4-1.2,2.4-2.6V8.9c0-0.7-0.3-1.3-0.7-1.8l-1.9-2c-0.5-0.5-1.1-0.8-1.7-0.8H8.4
							C7,4.3,6,5.5,6,6.9v10.3C6,18.6,7,19.8,8.4,19.8z M18.8,9H16c-0.9,0-1.6-0.8-1.6-1.7v-3"/>
					</g>
					<text transform="matrix(1 0 0 1 26 16.628)" class="st23 st7 st8">Animations.glb</text>
				</g>
			</g>
			<g transform="matrix(1, 0, 0, 1, 195.1937569515468, 564.8841857165087)">
				<path class="st21" d="M5.5,0.5h117.3c2.2,0,5,2.8,5,5V41c0,2.2-2.8,5-5,5H5.5c-2.2,0-5-2.8-5-5V5.5C0.5,3.3,3.3,0.5,5.5,0.5z"/>
				<path class="st16" d="M5.5,0.5h117.3c2.2,0,5,2.8,5,5V41c0,2.2-2.8,5-5,5H5.5c-2.2,0-5-2.8-5-5V5.5C0.5,3.3,3.3,0.5,5.5,0.5z"/>
				<g transform="matrix(1, 0, 0, 1, 11.261423749153968, 11.261423749153968)">
					<g transform="matrix(1, 0, 0, 1, 0, 0)">
						<path class="st22" d="M8.4,19.8h8c1.3,0,2.4-1.2,2.4-2.6V8.9c0-0.7-0.3-1.3-0.7-1.8l-1.9-2c-0.5-0.5-1.1-0.8-1.7-0.8H8.4
							C7,4.3,6,5.5,6,6.9v10.3C6,18.6,7,19.8,8.4,19.8z M18.8,9H16c-0.9,0-1.6-0.8-1.6-1.7v-3"/>
					</g>
					<text transform="matrix(1 0 0 1 26 16.628)" class="st23 st7 st8">Avatar.glb</text>
				</g>
			</g>
			<g transform="matrix(1, 0, 0, 1, 558.4536851587, 613.119569254033)">
				<path class="st21" d="M5.5,0.5h114.9c2.2,0,5,2.8,5,5V41c0,2.2-2.8,5-5,5H5.5c-2.2,0-5-2.8-5-5V5.5C0.5,3.3,3.3,0.5,5.5,0.5z"/>
				<path class="st16" d="M5.5,0.5h114.9c2.2,0,5,2.8,5,5V41c0,2.2-2.8,5-5,5H5.5c-2.2,0-5-2.8-5-5V5.5C0.5,3.3,3.3,0.5,5.5,0.5z"/>
				<g transform="matrix(1, 0, 0, 1, 11.261423749153975, 11.261423749153968)">
					<g transform="matrix(1, 0, 0, 1, 0, 0)">
						<path class="st22" d="M8.4,19.8h8c1.3,0,2.4-1.2,2.4-2.6V8.9c0-0.7-0.3-1.3-0.7-1.8l-1.9-2c-0.5-0.5-1.1-0.8-1.7-0.8H8.4
							C7,4.3,6,5.5,6,6.9v10.3C6,18.6,7,19.8,8.4,19.8z M18.8,9H16c-0.9,0-1.6-0.8-1.6-1.7v-3"/>
					</g>
					<text transform="matrix(1 0 0 1 26 16.628)" class="st23 st7 st8">back.jpeg</text>
				</g>
			</g>
			<g transform="matrix(1, 0, 0, 1, 713.6696021150157, 613.119569254033)">
				<path class="st21" d="M5.5,0.5h134.2c2.2,0,5,2.8,5,5V41c0,2.2-2.8,5-5,5H5.5c-2.2,0-5-2.8-5-5V5.5C0.5,3.3,3.3,0.5,5.5,0.5z"/>
				<path class="st16" d="M5.5,0.5h134.2c2.2,0,5,2.8,5,5V41c0,2.2-2.8,5-5,5H5.5c-2.2,0-5-2.8-5-5V5.5C0.5,3.3,3.3,0.5,5.5,0.5z"/>
				<g transform="matrix(1, 0, 0, 1, 11.261423749153954, 11.261423749153968)">
					<g transform="matrix(1, 0, 0, 1, 0, 0)">
						<path class="st22" d="M8.4,19.8h8c1.3,0,2.4-1.2,2.4-2.6V8.9c0-0.7-0.3-1.3-0.7-1.8l-1.9-2c-0.5-0.5-1.1-0.8-1.7-0.8H8.4
							C7,4.3,6,5.5,6,6.9v10.3C6,18.6,7,19.8,8.4,19.8z M18.8,9h-2.8c-0.9,0-1.6-0.8-1.6-1.7v-3"/>
					</g>
					<text transform="matrix(1 0 0 1 25.9999 16.628)" class="st23 st7 st8">bottom.jpeg</text>
				</g>
			</g>
			<g transform="matrix(1, 0, 0, 1, 558.4536851587, 669.6424167523409)">
				<path class="st21" d="M5.5,0.5h116.4c2.2,0,5,2.8,5,5V41c0,2.2-2.8,5-5,5H5.5c-2.2,0-5-2.8-5-5V5.5C0.5,3.3,3.3,0.5,5.5,0.5z"/>
				<path class="st16" d="M5.5,0.5h116.4c2.2,0,5,2.8,5,5V41c0,2.2-2.8,5-5,5H5.5c-2.2,0-5-2.8-5-5V5.5C0.5,3.3,3.3,0.5,5.5,0.5z"/>
				<g transform="matrix(1, 0, 0, 1, 11.261423749153975, 11.261423749153968)">
					<g transform="matrix(1, 0, 0, 1, 0, 0)">
						<path class="st22" d="M8.4,19.8h8c1.3,0,2.4-1.2,2.4-2.6V8.9c0-0.7-0.3-1.3-0.7-1.8l-1.9-2c-0.5-0.5-1.1-0.8-1.7-0.8H8.4
							C7,4.3,6,5.5,6,6.9v10.3C6,18.6,7,19.8,8.4,19.8z M18.8,9H16c-0.9,0-1.6-0.8-1.6-1.7v-3"/>
					</g>
					<text transform="matrix(1 0 0 1 26 16.628)" class="st23 st7 st8">front.jpeg</text>
				</g>
			</g>
			<g transform="matrix(1, 0, 0, 1, 713.6696021150157, 669.6424167523409)">
				<path class="st21" d="M5.5,0.5h104.1c2.2,0,5,2.8,5,5V41c0,2.2-2.8,5-5,5H5.5c-2.2,0-5-2.8-5-5V5.5C0.5,3.3,3.3,0.5,5.5,0.5z"/>
				<path class="st16" d="M5.5,0.5h104.1c2.2,0,5,2.8,5,5V41c0,2.2-2.8,5-5,5H5.5c-2.2,0-5-2.8-5-5V5.5C0.5,3.3,3.3,0.5,5.5,0.5z"/>
				<g transform="matrix(1, 0, 0, 1, 11.261423749153975, 11.261423749153968)">
					<g transform="matrix(1, 0, 0, 1, 0, 0)">
						<path class="st22" d="M8.4,19.8h8c1.3,0,2.4-1.2,2.4-2.6V8.9c0-0.7-0.3-1.3-0.7-1.8l-1.9-2c-0.5-0.5-1.1-0.8-1.7-0.8H8.4
							C7,4.3,6,5.5,6,6.9v10.3C6,18.6,7,19.8,8.4,19.8z M18.8,9h-2.8c-0.9,0-1.6-0.8-1.6-1.7v-3"/>
					</g>
					<text transform="matrix(1 0 0 1 25.9999 16.628)" class="st23 st7 st8">left.jpeg</text>
				</g>
			</g>
			<g transform="matrix(1, 0, 0, 1, 558.4536851587, 726.1652642506488)">
				<path class="st21" d="M5.5,0.5h113.8c2.2,0,5,2.8,5,5V41c0,2.2-2.8,5-5,5H5.5c-2.2,0-5-2.8-5-5V5.5C0.5,3.3,3.3,0.5,5.5,0.5z"/>
				<path class="st16" d="M5.5,0.5h113.8c2.2,0,5,2.8,5,5V41c0,2.2-2.8,5-5,5H5.5c-2.2,0-5-2.8-5-5V5.5C0.5,3.3,3.3,0.5,5.5,0.5z"/>
				<g transform="matrix(1, 0, 0, 1, 11.261423749153975, 11.261423749153968)">
					<g transform="matrix(1, 0, 0, 1, 0, 0)">
						<path class="st22" d="M8.4,19.8h8c1.3,0,2.4-1.2,2.4-2.6V8.9c0-0.7-0.3-1.3-0.7-1.8l-1.9-2c-0.5-0.5-1.1-0.8-1.7-0.8H8.4
							C7,4.3,6,5.5,6,6.9v10.3C6,18.6,7,19.8,8.4,19.8z M18.8,9H16c-0.9,0-1.6-0.8-1.6-1.7v-3"/>
					</g>
					<text transform="matrix(1 0 0 1 26 16.628)" class="st23 st7 st8">right.jpeg</text>
				</g>
			</g>
			<g transform="matrix(1, 0, 0, 1, 713.6696021150157, 726.1652642506488)">
				<path class="st21" d="M5.5,0.5h103.2c2.2,0,5,2.8,5,5V41c0,2.2-2.8,5-5,5H5.5c-2.2,0-5-2.8-5-5V5.5C0.5,3.3,3.3,0.5,5.5,0.5z"/>
				<path class="st16" d="M5.5,0.5h103.2c2.2,0,5,2.8,5,5V41c0,2.2-2.8,5-5,5H5.5c-2.2,0-5-2.8-5-5V5.5C0.5,3.3,3.3,0.5,5.5,0.5z"/>
				<g transform="matrix(1, 0, 0, 1, 11.261423749153975, 11.261423749153968)">
					<g transform="matrix(1, 0, 0, 1, 0, 0)">
						<path class="st22" d="M8.4,19.8h8c1.3,0,2.4-1.2,2.4-2.6V8.9c0-0.7-0.3-1.3-0.7-1.8l-1.9-2c-0.5-0.5-1.1-0.8-1.7-0.8H8.4
							C7,4.3,6,5.5,6,6.9v10.3C6,18.6,7,19.8,8.4,19.8z M18.8,9h-2.8c-0.9,0-1.6-0.8-1.6-1.7v-3"/>
					</g>
					<text transform="matrix(1 0 0 1 25.9999 16.628)" class="st23 st7 st8">top.jpeg</text>
				</g>
			</g>
			<g transform="matrix(1, 0, 0, 1, 168.46144082158094, 1151.2915645697758)">
				<path class="st21" d="M5.5,0.5h139.3c2.2,0,5,2.8,5,5V41c0,2.2-2.8,5-5,5H5.5c-2.2,0-5-2.8-5-5V5.5C0.5,3.3,3.3,0.5,5.5,0.5z"/>
				<path class="st16" d="M5.5,0.5h139.3c2.2,0,5,2.8,5,5V41c0,2.2-2.8,5-5,5H5.5c-2.2,0-5-2.8-5-5V5.5C0.5,3.3,3.3,0.5,5.5,0.5z"/>
				<g transform="matrix(1, 0, 0, 1, 11.261423749153954, 11.261423749153968)">
					<g transform="matrix(1, 0, 0, 1, 0, 0)">
						<path class="st22" d="M8.4,19.8h8c1.3,0,2.4-1.2,2.4-2.6V8.9c0-0.7-0.3-1.3-0.7-1.8l-1.9-2c-0.5-0.5-1.1-0.8-1.7-0.8H8.4
							C7,4.3,6,5.5,6,6.9v10.3C6,18.6,7,19.8,8.4,19.8z M18.8,9H16c-0.9,0-1.6-0.8-1.6-1.7v-3"/>
					</g>
					<text transform="matrix(1 0 0 1 26 16.628)" class="st23 st7 st8">vite.config.js</text>
				</g>
			</g>
			<g transform="matrix(1, 0, 0, 1, 349.2757373155903, 1150.6799987859522)">
				<path class="st21" d="M5.5,0.5h173.9c2.2,0,5,2.8,5,5V41c0,2.2-2.8,5-5,5H5.5c-2.2,0-5-2.8-5-5V5.5C0.5,3.3,3.3,0.5,5.5,0.5z"/>
				<path class="st16" d="M5.5,0.5h173.9c2.2,0,5,2.8,5,5V41c0,2.2-2.8,5-5,5H5.5c-2.2,0-5-2.8-5-5V5.5C0.5,3.3,3.3,0.5,5.5,0.5z"/>
				<g transform="matrix(1, 0, 0, 1, 11.261423749153954, 11.261423749153968)">
					<g transform="matrix(1, 0, 0, 1, 0, 0)">
						<path class="st22" d="M8.4,19.8h8c1.3,0,2.4-1.2,2.4-2.6V8.9c0-0.7-0.3-1.3-0.7-1.8l-1.9-2c-0.5-0.5-1.1-0.8-1.7-0.8H8.4
							C7,4.3,6,5.5,6,6.9v10.3C6,18.6,7,19.8,8.4,19.8z M18.8,9H16c-0.9,0-1.6-0.8-1.6-1.7v-3"/>
					</g>
					<text transform="matrix(1 0 0 1 26 16.628)" class="st23 st7 st8">tailwind.config.js</text>
				</g>
			</g>
			<g transform="matrix(1, 0, 0, 1, 558.1253255374513, 1152.6193458044684)">
				<path class="st21" d="M5.5,0.5h170.9c2.2,0,5,2.8,5,5V41c0,2.2-2.8,5-5,5H5.5c-2.2,0-5-2.8-5-5V5.5C0.5,3.3,3.3,0.5,5.5,0.5z"/>
				<path class="st16" d="M5.5,0.5h170.9c2.2,0,5,2.8,5,5V41c0,2.2-2.8,5-5,5H5.5c-2.2,0-5-2.8-5-5V5.5C0.5,3.3,3.3,0.5,5.5,0.5z"/>
				<g transform="matrix(1, 0, 0, 1, 11.261423749153954, 11.261423749153968)">
					<g transform="matrix(1, 0, 0, 1, 0, 0)">
						<path class="st22" d="M8.4,19.8h8c1.3,0,2.4-1.2,2.4-2.6V8.9c0-0.7-0.3-1.3-0.7-1.8l-1.9-2c-0.5-0.5-1.1-0.8-1.7-0.8H8.4
							C7,4.3,6,5.5,6,6.9v10.3C6,18.6,7,19.8,8.4,19.8z M18.8,9H16c-0.9,0-1.6-0.8-1.6-1.7v-3"/>
					</g>
					<text transform="matrix(1 0 0 1 26 16.628)" class="st23 st7 st8">postcss.config.js</text>
				</g>
			</g>
		</g>
	</g>
</g>
</svg>
